<?xml version="1.0" encoding="UTF-8" standalone="no"?>
<!DOCTYPE svg PUBLIC "-//W3C//DTD SVG 1.1//EN" "http://www.w3.org/Graphics/SVG/1.1/DTD/svg11.dtd">
<svg width="100%" height="100%" viewBox="0 0 60 100" version="1.1" xmlns="http://www.w3.org/2000/svg" xmlns:xlink="http://www.w3.org/1999/xlink" xml:space="preserve" xmlns:serif="http://www.serif.com/" style="fill-rule:evenodd;clip-rule:evenodd;stroke-linejoin:round;stroke-miterlimit:2;">
    <g id="Artboard1" transform="matrix(0.6,0,0,1,0,0)">
        <rect x="0" y="0" width="100" height="100" style="fill:none;"/>
        <clipPath id="_clip1">
            <rect x="0" y="0" width="100" height="100"/>
        </clipPath>
        <g clip-path="url(#_clip1)">
            <g transform="matrix(4.81125,0,0,2.88675,-190.741,-94.3376)">
                <path d="M40.866,34.179C40.687,33.87 40.687,33.489 40.866,33.179C41.045,32.87 41.375,32.679 41.732,32.679C43.381,32.679 45.873,32.679 47.691,32.679C49.12,32.679 50.44,33.442 51.155,34.679C53.079,38.013 56.921,44.667 58.845,48C59.56,49.238 59.56,50.762 58.845,52C56.921,55.333 53.079,61.987 51.155,65.321C50.44,66.558 49.12,67.321 47.691,67.321C45.873,67.321 43.381,67.321 41.732,67.321C41.375,67.321 41.045,67.13 40.866,66.821C40.687,66.511 40.687,66.13 40.866,65.821C42.668,62.7 46.819,55.51 48.845,52C49.56,50.762 49.56,49.238 48.845,48C46.819,44.49 42.668,37.3 40.866,34.179Z" style="fill:white;"/>
            </g>
        </g>
    </g>
</svg>
